<?xml version="1.0" encoding="UTF-8" standalone="no"?>
<svg
   xmlns:dc="http://purl.org/dc/elements/1.1/"
   xmlns:cc="http://creativecommons.org/ns#"
   xmlns:rdf="http://www.w3.org/1999/02/22-rdf-syntax-ns#"
   xmlns:svg="http://www.w3.org/2000/svg"
   xmlns="http://www.w3.org/2000/svg"
   xmlns:sodipodi="http://sodipodi.sourceforge.net/DTD/sodipodi-0.dtd"
   xmlns:inkscape="http://www.inkscape.org/namespaces/inkscape"
   version="1.1"
   id="Layer_1"
   x="0px"
   y="0px"
   viewBox="33.9819 113.1217 354.32993 223.85105"
   enable-background="new 33.9819 113.1217 2523.0447 1389.4792"
   xml:space="preserve"
   inkscape:version="0.91 r"
   sodipodi:docname="Stork-Carrying-Baby-Boy.svg"
   width="354.32993"
   height="223.85106"
   inkscape:export-filename="/tmp/test.png"
   inkscape:export-xdpi="600"
   inkscape:export-ydpi="600"><metadata
     id="metadata15934"><rdf:RDF><cc:Work
         rdf:about=""><dc:format>image/svg+xml</dc:format><dc:type
           rdf:resource="http://purl.org/dc/dcmitype/StillImage" /><dc:title></dc:title></cc:Work></rdf:RDF></metadata><defs
     id="defs15932" /><sodipodi:namedview
     pagecolor="#ffffff"
     bordercolor="#666666"
     borderopacity="1"
     objecttolerance="10"
     gridtolerance="10"
     guidetolerance="10"
     inkscape:pageopacity="0"
     inkscape:pageshadow="2"
     inkscape:window-width="640"
     inkscape:window-height="480"
     id="namedview15930"
     showgrid="false"
     inkscape:zoom="1.4056129"
     inkscape:cx="171.61283"
     inkscape:cy="113.58182"
     inkscape:current-layer="layer1"
     showguides="false"
     fit-margin-top="0"
     fit-margin-left="0"
     fit-margin-right="0"
     fit-margin-bottom="0" /><g
     inkscape:groupmode="layer"
     id="layer1"
     inkscape:label="Layer 1"><path
       transform="translate(2.6147461e-7,-1.1572266e-6)"
       style="fill:#a2cbe7;stroke:#7d8c8d;stroke-width:0.07677344;fill-opacity:1"
       d="m 126.77978,113.15857 -0.002,0.001 c -3.10133,0.51288 -3.82245,1.6083 -3.15842,4.83938 -4.30143,-0.32837 -10.78678,-2.4742 -12.97758,2.75319 5.52672,0.48418 7.99629,3.3253 10.48344,9.08881 -0.25806,0.0497 -0.514,0.24369 -0.77826,0.13006 -9.7361,-3.30785 -31.467206,9.84931 -17.77122,18.51607 -0.0186,0.34566 -0.0351,0.69347 -0.0454,1.04148 l -0.18595,-0.097 c -37.499948,13.02812 -41.509188,43.21772 -17.938416,45.67552 0.47484,-0.071 0.75808,-0.2774 0.83399,-0.2772 -6.05339,14.1341 -25.223102,6.7022 -28.287712,2.1617 -3.3419,-2.8221 -8.93337,-9.6268 -12.45725,-11.1769 -1.29735,-0.8309 -7.19553,-3.8174 -9.76512,1.6831 -3.07198,6.8593 4.72505,13.8876 6.33588,17.5147 -0.82967,6.5556 4.81016,10.0949 6.83969,13.653 -7.90069,7.4435 4.74385,27.1302 22.464042,22.1122 l -0.0104,0.2486 -0.003,0.2486 -0.18988,0.019 c -2.79752,16.3144 14.08225,23.5105 26.69002,13.942 l 0.18988,-0.028 c 0.12613,-0.1259 2.08923,1.6402 3.703666,2.0621 14.38041,1.0368 27.84184,8.3877 41.90009,8.4633 14.73648,-3.1933 33.00424,-8.4897 43.31451,-18.3238 8.35429,-0.4093 17.19183,-4.3096 24.07824,-9.304 15.85565,-12.9818 34.85787,-27.9382 46.96294,-42.2662 2.6694,-2.474 5.14878,-5.2487 7.43005,-8.1536 0.29728,-0.035 0.5759,-0.1634 0.87321,-0.2415 4.85114,1.0225 17.47093,1.5198 22.2451,-4.8818 0.1032,-0.054 0.30975,-0.1657 0.41505,-0.2225 5.26462,-6.0568 18.28729,-9.173 24.10931,-10.4097 7.36834,-0.977 13.4599,-4.3443 16.92443,-4.871 0.8649,-0.2636 1.43119,-0.1846 2.01927,-0.1306 -0.0575,0.1254 0.079,0.333 0.0215,0.4561 -0.006,0.1373 -0.019,0.4144 -0.0246,0.5517 -0.35918,0.064 -0.57387,0.7907 -0.33435,1.1411 l -0.0518,0.1634 c -0.24564,0.6582 -0.51195,1.4228 -0.36126,2.1402 -2.09664,8.145 -0.56206,18.1598 -4.26584,24.4843 -2.62292,-7.0661 -6.93073,-19.1856 -13.00028,-17.7039 -5.89391,1.5852 -8.75452,6.4561 -11.32387,11.5956 -8.4234,15.5502 7.50158,31.5082 16.79886,25.4336 0.49754,0.01 1.04875,-0.026 0.86707,0.7387 -1.57847,4.4825 -3.83601,8.2791 -6.1827,12.3748 -1.24072,1.456 -2.27937,3.2435 -3.32814,4.9196 -1.87042,3.2884 -3.81526,6.624 -5.13448,10.2321 0.0471,-0.022 0.0915,-0.047 0.13332,-0.077 -0.0419,0.03 -0.0861,0.056 -0.13332,0.077 -1.23663,1.3068 -2.79945,2.1095 -4.10833,3.3097 -5.19016,4.1241 -9.75479,9.4057 -12.99607,15.6274 -0.15278,0.367 -0.53056,1.2856 -0.0495,1.3755 0.0248,0.6934 1.25235,0.3199 1.71727,0.4094 0.84023,0.6085 1.89504,0.523 2.71255,1.2073 -0.0887,0.5019 -0.41495,0.819 -0.85469,0.8285 -7.42363,7.6003 -17.71894,38.0125 0.57605,47.7489 0.0504,0.01 0.0947,0.01 0.13302,0.01 -0.0383,0 -0.0826,-0.01 -0.13302,-0.01 -0.003,0.4522 0.67304,0.4119 0.58837,0.9564 -0.095,0.066 -0.28698,0.2037 -0.38197,0.2723 9.01641,34.0609 69.19177,21.6705 67.97157,6.1763 15.4089,-3.7995 21.0681,-29.0652 15.1908,-37.2118 0.01,-0.1207 0.017,-0.3622 0.023,-0.483 3.3332,-0.4397 8.1392,-6.194 9.5193,-8.7477 3.8193,-7.4739 4.8213,-16.9477 2.1987,-24.3825 l -0.1692,-0.088 c -2.1707,-5.2987 -5.9368,-9.7327 -9.9303,-12.4837 -0.2973,-0.8381 -1.2531,-1.1247 -1.6042,-1.9082 -0.039,-0.528 -0.5738,-0.6013 -0.7947,-0.9944 -0.4563,-1.0369 -0.9001,-2.1046 -0.9559,-3.2788 0.1631,-0.4806 0.1712,-1.1129 -0.01,-1.5888 0.1362,-0.883 0.2519,-1.7706 0.2994,-2.6655 -0.5368,0.5208 -0.6505,1.6051 -0.6525,2.4195 l -0.1631,-0.047 c -0.1631,1.759 -0.6729,3.504 -0.01,5.218 -0.026,0.6842 1.3007,2.2656 0.1445,2.4645 -5.5716,-1.5954 -13.0865,-3.8249 -20.97738,1.8607 -0.29108,-0.1018 -0.56351,-0.3101 -0.87322,-0.2746 -1.81675,-0.3485 -4.55713,-19.018 -5.97041,-18.717 -0.007,0.5232 -0.008,0.4827 0,0 0.0847,-0.4381 -0.0101,-0.6983 -0.28671,-0.7789 -0.0867,-0.303 -0.06,-0.6037 0.0556,-0.8902 9.40147,-2.2051 15.50032,-13.437 18.80552,-22.962 0.8265,-2.2774 -0.155,-4.4656 -1.9136,-5.6086 -1.9327,-0.7776 -3.2165,-1.735 -5.023,-2.7602 -0.40354,-1.1871 -1.02479,-1.2228 -2.20708,-1.2714 -2.15533,-0.3078 -4.09187,1.1624 -5.857,2.3816 -3.42885,2.9369 -5.93205,5.9707 -8.93507,8.776 -2.99298,-10.7672 2.56739,-19.6151 -0.5359,-29.5102 0.0929,-0.2368 0.0474,-0.4476 -0.13836,-0.6346 0.0556,-0.069 0.16945,-0.206 0.22517,-0.2746 l -0.19826,-0.042 c -0.0499,-0.01 -0.0996,-0.011 -0.14898,-0.014 0.0493,0 0.0989,0.01 0.14898,0.014 -0.006,-0.1586 -0.0126,-0.4781 -0.0164,-0.6391 0.3221,-0.1586 0.91264,-0.068 1.04267,-0.4875 -0.0952,-0.012 -0.18935,-0.021 -0.28254,-0.026 0.0932,0.01 0.18732,0.013 0.28254,0.025 15.50083,-2.7338 26.91513,-5.0085 36.71293,-7.2727 0.3097,-0.066 0.9395,0.1327 1.0592,-0.2816 1.0653,-0.026 2.3865,0 3.2041,-0.7907 0.031,-0.1018 0.097,-0.3007 0.1299,-0.4002 0.671,-0.2888 -1.4389,-0.4947 -1.4431,-0.014 -0.1012,0 -0.3055,0.01 -0.4067,0.01 l 0,0.22 c -28.2358,-3.0117 -70.4961,3.2627 -93.92217,5.2581 0.0289,-0.3835 -0.42947,-0.3481 -0.638,-0.476 -0.35506,-0.5847 -1.05487,-0.8497 -1.59991,-1.1882 0.0268,-0.1207 0.0826,-0.3647 0.11147,-0.4878 0.38399,-1.2666 0.96427,-2.4599 1.09025,-3.8188 -0.75976,0.7245 -1.10258,2.0408 -1.62487,3.0233 -0.062,0.08 -0.18787,0.2369 -0.24981,0.315 -0.1507,0 -0.45005,-0.017 -0.59875,-0.021 -0.46037,0.1184 -0.0101,-0.883 -0.51389,-0.7528 -6.35487,-6.6948 -11.36739,-15.68353 -16.90389,-22.83416 -0.76592,-0.48061 -1.70335,-0.88767 -2.55182,-0.703 -0.32622,0.56581 -1.17682,0.13028 -1.22635,0.92812 -0.45215,-0.009 -0.74512,0.58935 -0.98048,0.97051 -0.61728,-0.0497 -1.20773,0.53518 -1.81474,0.20136 l 0.0104,0.19879 c -0.10323,-0.004 -0.30735,-0.0165 -0.41057,-0.0212 -0.48716,-0.0591 -0.93736,0.17515 -1.39352,0.31955 -0.12389,-0.81442 0.76399,-1.13164 1.20167,-1.49623 1.58146,-0.93988 3.17303,-1.94624 4.92166,-2.4221 l 0.0414,-0.19879 c -2.23589,0.28884 -4.39757,1.23837 -6.39188,2.40315 -0.0165,-0.20124 -0.0494,-0.60614 -0.0658,-0.80737 0.22088,-0.10891 0.46225,-0.206 0.59233,-0.46405 0.86708,0.14914 1.33582,-0.81457 1.97377,-1.23835 0.0743,-0.045 0.22088,-0.1324 0.2952,-0.17502 0.43765,-0.22728 1.0673,-0.45711 1.30474,-0.92587 0.0557,-0.045 0.16941,-0.13485 0.22516,-0.17985 0.42942,-0.15862 0.99926,-0.29356 1.24904,-0.73863 0.23533,0.0165 0.44181,-0.0638 0.62141,-0.24376 1.17679,-0.0947 2.03544,-1.19338 3.20605,-1.27624 0.83199,-0.71733 2.23593,-0.381 2.7851,-1.54343 -0.63586,0.0118 -1.23057,0.0663 -1.81894,0.30541 -40.72011,5.18633 -41.7477,43.89666 -25.86773,53.92616 0.22709,0.5777 -0.512,0.8308 -0.31587,1.3588 -0.4604,0.4806 -0.92495,0.954 -1.45964,1.3257 -7.32556,9.5312 -28.86735,22.8324 -35.87093,23.1752 -5.16874,1.1029 -7.95884,-0.8146 -11.94729,-4.3942 -3.82289,-4.491 -8.41626,-8.5657 -13.58642,-8.7381 0.24018,-28.8316 -17.24123,-70.84346 -45.75337,-81.58528 -0.6367,-0.82178 -3.94828,-1.0492 -4.76704,-1.04405 z"
       id="path26257"
       inkscape:connector-curvature="0"
       sodipodi:nodetypes="cccccccccccccccccccccccccccccccccccccccccccccccccccccccccccccccccccccccccccccccccccccccccccccccccccccccccccccccccccccccccccccccccccccccccccccccccc" /></g></svg>