<?xml version="1.0" encoding="UTF-8" standalone="no"?>
<!-- Created with Inkscape (http://www.inkscape.org/) -->

<svg
   width="300mm"
   height="300mm"
   viewBox="0 0 300 300"
   version="1.1"
   id="svg136"
   inkscape:version="1.1.2 (0a00cf5339, 2022-02-04)"
   sodipodi:docname="favicon.svg"
   inkscape:export-filename="/home/paul/code/neutron/bundles/assets/favicon.png"
   inkscape:export-xdpi="96.012001"
   inkscape:export-ydpi="96.012001"
   xmlns:inkscape="http://www.inkscape.org/namespaces/inkscape"
   xmlns:sodipodi="http://sodipodi.sourceforge.net/DTD/sodipodi-0.dtd"
   xmlns="http://www.w3.org/2000/svg"
   xmlns:svg="http://www.w3.org/2000/svg">
  <sodipodi:namedview
     id="namedview138"
     pagecolor="#ffffff"
     bordercolor="#666666"
     borderopacity="1.0"
     inkscape:pageshadow="2"
     inkscape:pageopacity="0.0"
     inkscape:pagecheckerboard="0"
     inkscape:document-units="mm"
     showgrid="false"
     inkscape:zoom="0.40286427"
     inkscape:cx="560.98299"
     inkscape:cy="567.18855"
     inkscape:window-width="1503"
     inkscape:window-height="938"
     inkscape:window-x="0"
     inkscape:window-y="0"
     inkscape:window-maximized="1"
     inkscape:current-layer="layer1" />
  <defs
     id="defs133" />
  <g
     inkscape:label="Layer 1"
     inkscape:groupmode="layer"
     id="layer1">
    <rect
       style="fill:#a2cbe7;fill-opacity:1;fill-rule:evenodd;stroke-width:0.276048"
       id="rect1179"
       width="300"
       height="300"
       x="-5.3290705e-15"
       y="2.6867397e-14"
       ry="52.886776" />
    <path
       style="fill:#ffffff;fill-opacity:1;stroke:#7d8c8d;stroke-width:0.0595913"
       d="m 84.515438,71.156183 -0.0012,8e-4 c -2.40724,0.398099 -2.966979,1.248363 -2.451567,3.756309 -3.338738,-0.254941 -8.372648,-1.920483 -10.073149,2.136989 4.289831,0.375843 6.206717,2.581088 8.137207,7.054716 -0.200363,0.03852 -0.398946,0.18921 -0.604077,0.100883 -7.557124,-2.567548 -24.424734,7.645017 -13.79396,14.372123 -0.01478,0.268136 -0.02631,0.538265 -0.03527,0.808353 l -0.144291,-0.07536 c -29.107278,10.112434 -32.21925,33.545524 -13.923707,35.453254 0.368575,-0.0553 0.588426,-0.21535 0.647329,-0.21504 -4.698585,10.97084 -19.578065,5.20221 -21.956786,1.6779 -2.59397,-2.19051 -6.93405,-7.47229 -9.669275,-8.67547 -1.007007,-0.64496 -5.585153,-2.96304 -7.579657,1.30642 -2.384478,5.32413 3.667568,10.77948 4.917892,13.59483 -0.643996,5.08844 3.733608,7.83565 5.308923,10.59741 -6.132487,5.77765 3.682178,21.05839 17.436545,17.16341 l -0.0088,0.19304 -0.0029,0.19303 -0.147259,0.0149 c -2.171443,12.66318 10.930579,18.24874 20.716674,10.82173 l 0.147259,-0.0206 c 0.09797,-0.0976 1.621658,1.27312 2.874773,1.6006 11.162025,0.80476 21.61074,6.51049 32.522713,6.56918 11.438405,-2.47864 25.617775,-6.5897 33.620555,-14.22289 6.48458,-0.31769 13.34427,-3.34506 18.68947,-7.22173 12.30711,-10.07644 27.05655,-21.68553 36.45247,-32.80688 2.07199,-1.9203 3.99648,-4.074 5.76716,-6.32879 0.23087,-0.0263 0.44703,-0.1267 0.67779,-0.18747 3.76543,0.79365 13.56089,1.17966 17.26656,-3.78926 0.0801,-0.0419 0.24057,-0.12846 0.32218,-0.17279 4.08637,-4.70127 14.19454,-7.12003 18.71357,-8.07997 5.71928,-0.75835 10.44755,-3.37203 13.13668,-3.78085 0.67134,-0.20449 1.11088,-0.14312 1.56736,-0.1016 -0.0446,0.0974 0.0613,0.25845 0.0176,0.35402 -0.005,0.1066 -0.0149,0.32164 -0.0206,0.42824 -0.27871,0.0496 -0.44545,0.61371 -0.25963,0.88569 l -0.0403,0.12669 c -0.19068,0.51087 -0.39736,1.10434 -0.28045,1.66121 -1.62743,6.32212 -0.43629,14.09559 -3.31114,19.00461 -2.03591,-5.48467 -5.3796,-14.89179 -10.09077,-13.74168 -4.57483,1.23043 -6.79524,5.01117 -8.78956,9.00045 -6.53821,12.07001 5.8227,24.45655 13.03922,19.7415 0.38618,0.01 0.81404,-0.0206 0.67302,0.57334 -1.22522,3.47932 -2.97749,6.42623 -4.79899,9.60529 -0.96304,1.13012 -1.76925,2.51761 -2.58331,3.81856 -1.45179,2.55247 -2.96136,5.14153 -3.98537,7.94214 0.0367,-0.0176 0.071,-0.0364 0.10358,-0.0598 -0.0325,0.0235 -0.0669,0.0433 -0.10358,0.0598 -0.95985,1.01432 -2.17289,1.6374 -3.18885,2.56898 -4.02858,3.20112 -7.57164,7.30067 -10.08752,12.12995 -0.11855,0.28484 -0.41181,0.99787 -0.0386,1.06764 0.0206,0.53822 0.97207,0.24818 1.33297,0.31776 0.65217,0.47233 1.47088,0.40596 2.10544,0.9371 -0.0691,0.3896 -0.32206,0.63573 -0.66338,0.64309 -5.76221,5.89933 -13.7534,29.50519 0.44711,37.06253 0.039,0.01 0.0737,0.01 0.10337,0.01 -0.0295,0 -0.0642,-0.01 -0.10337,-0.01 -0.003,0.35102 0.52243,0.31975 0.45668,0.74237 -0.0735,0.0514 -0.22266,0.15812 -0.29646,0.21122 6.99849,26.43792 53.70641,16.82056 52.7593,4.794 11.96033,-2.94915 16.35297,-22.56029 11.79104,-28.88366 0.01,-0.0934 0.0149,-0.28105 0.0176,-0.37489 2.58721,-0.34131 6.31762,-4.80777 7.38884,-6.78996 2.96452,-5.80121 3.74229,-13.15476 1.70663,-18.9256 l -0.13143,-0.0684 c -1.68488,-4.11284 -4.60813,-7.55448 -7.70785,-9.6898 -0.23089,-0.65055 -0.97264,-0.873 -1.24516,-1.48114 -0.0303,-0.40983 -0.44539,-0.46672 -0.61686,-0.77186 -0.35419,-0.80484 -0.69865,-1.63357 -0.74196,-2.54501 0.12669,-0.37303 0.13291,-0.8638 -0.01,-1.23321 0.1057,-0.68536 0.1957,-1.37432 0.23237,-2.06893 -0.41666,0.40424 -0.5049,1.24587 -0.50646,1.87798 l -0.1267,-0.0364 c -0.12638,1.36533 -0.5223,2.71979 -0.01,4.05021 -0.0206,0.53104 1.00957,1.75856 0.11203,1.91291 -4.32466,-1.23834 -10.15772,-2.96885 -16.2826,1.44428 -0.22588,-0.079 -0.43738,-0.24085 -0.67776,-0.21328 -1.41016,-0.27049 -3.53724,-14.76173 -4.63423,-14.52809 -0.005,0.4061 -0.005,0.37466 0,0 0.0657,-0.34003 -0.01,-0.54201 -0.22267,-0.60455 -0.0671,-0.2353 -0.0466,-0.4686 0.0431,-0.69101 7.29738,-1.71159 12.03128,-10.42973 14.59675,-17.82301 0.64155,-1.7677 -0.12032,-3.46618 -1.48531,-4.35338 -1.50015,-0.60357 -2.49667,-1.34668 -3.89885,-2.14244 -0.31324,-0.92144 -0.79545,-0.94916 -1.71314,-0.98684 -1.67295,-0.23881 -3.17606,0.90223 -4.54618,1.84858 -2.66145,2.27957 -4.60444,4.63444 -6.93537,6.81188 -2.32313,-8.35746 1.99281,-15.22518 -0.41597,-22.90574 0.0723,-0.18363 0.0367,-0.3474 -0.10747,-0.49254 0.0431,-0.0538 0.13142,-0.15989 0.17484,-0.21328 l -0.15402,-0.0326 c -0.0387,-0.01 -0.0774,-0.01 -0.11558,-0.0119 0.0382,0 0.0768,0.01 0.11558,0.0119 -0.005,-0.12314 -0.01,-0.3711 -0.012,-0.49605 0.24994,-0.12315 0.70837,-0.0528 0.8093,-0.37841 -0.0739,-0.01 -0.14697,-0.0176 -0.21944,-0.0206 0.0725,0.01 0.14549,0.01 0.21944,0.0206 12.03169,-2.12197 20.8914,-3.88761 28.49646,-5.64508 0.24025,-0.0514 0.72921,0.10305 0.82212,-0.21856 0.82691,-0.0206 1.85239,0 2.48705,-0.61376 0.0235,-0.0789 0.0754,-0.23352 0.10096,-0.31066 0.5208,-0.22411 -1.11688,-0.38397 -1.12013,-0.0118 -0.0787,0 -0.23704,0.01 -0.31568,0.01 v 0.17077 c -21.91654,-2.33769 -54.71884,2.5325 -72.90209,4.08133 0.0235,-0.29768 -0.33336,-0.27017 -0.49523,-0.36946 -0.27548,-0.45384 -0.81878,-0.65956 -1.24181,-0.92229 0.0206,-0.0934 0.0643,-0.28311 0.0865,-0.37862 0.29807,-0.98316 0.74846,-1.90937 0.84626,-2.96416 -0.58974,0.56236 -0.85583,1.58407 -1.26122,2.34666 -0.0482,0.0622 -0.14577,0.18395 -0.19393,0.2444 -0.11706,0 -0.34929,-0.0119 -0.46475,-0.0176 -0.35731,0.0918 -0.01,-0.68539 -0.39883,-0.58433 -4.93267,-5.1965 -8.82336,-12.173548 -13.12077,-17.723839 -0.59451,-0.373047 -1.32214,-0.688993 -1.98072,-0.545654 -0.25317,0.439174 -0.91344,0.101218 -0.95187,0.720377 -0.35095,-0.0056 -0.57838,0.45748 -0.76106,0.753315 -0.47914,-0.03852 -0.93745,0.415405 -1.40858,0.15636 l 0.01,0.154313 c -0.0801,-0.0033 -0.2385,-0.01187 -0.31869,-0.01758 -0.37813,-0.04568 -0.72759,0.135869 -1.08163,0.247903 -0.0961,-0.632181 0.59299,-0.878406 0.93271,-1.161377 1.22753,-0.729533 2.46289,-1.510663 3.82019,-1.880026 l 0.0319,-0.154322 c -1.73551,0.224144 -3.41337,0.961248 -4.96134,1.865337 -0.0119,-0.156058 -0.0386,-0.470503 -0.0511,-0.626684 0.17132,-0.08453 0.35877,-0.159875 0.45975,-0.360194 0.673,0.115885 1.03685,-0.632269 1.53205,-0.96118 0.0578,-0.03493 0.17133,-0.102669 0.22913,-0.135859 0.33972,-0.176312 0.82843,-0.354819 1.01272,-0.718663 0.0431,-0.03493 0.13143,-0.1048 0.17485,-0.139565 0.33329,-0.123285 0.77559,-0.22794 0.96948,-0.573331 0.18278,0.01187 0.34296,-0.04961 0.48237,-0.189211 0.91341,-0.07367 1.57989,-0.926303 2.4885,-0.990617 0.64578,-0.556805 1.73551,-0.295735 2.16177,-1.19801 -0.49352,0.0088 -0.95513,0.05137 -1.41185,0.237034 -31.60679,4.025589 -32.40442,34.072493 -20.07844,41.857363 0.17631,0.4484 -0.39739,0.64487 -0.24526,1.05471 -0.35735,0.37301 -0.71796,0.74048 -1.13298,1.02897 -5.68607,7.3981 -22.40674,17.72247 -27.84291,17.98853 -4.01193,0.85605 -6.1776,-0.63227 -9.27342,-3.41078 -2.9673,-3.48588 -6.53267,-6.64866 -10.54574,-6.78246 0.18726,-22.37982 -13.3816,-54.989333 -35.512638,-63.327118 -0.494195,-0.637857 -3.064646,-0.814374 -3.700175,-0.810393 z"
       id="path26257"
       inkscape:connector-curvature="0"
       sodipodi:nodetypes="cccccccccccccccccccccccccccccccccccccccccccccccccccccccccccccccccccccccccccccccccccccccccccccccccccccccccccccccccccccccccccccccccccccccccccccccccc" />
  </g>
</svg>
